<svg version="1.1" id="Layer_1" xmlns="http://www.w3.org/2000/svg" xmlns:xlink="http://www.w3.org/1999/xlink" x="0px" y="0px" width="32px" height="32px" viewBox="0 0 32 32" enable-background="new 0 0 32 32" xml:space="preserve">
<g>
	<path fill="#2C97DF" d="M25.24,21.279c-1.079,0-1.956,0.847-1.956,1.888s0.877,1.888,1.956,1.888c1.078,0,1.956-0.847,1.956-1.888   S26.318,21.279,25.24,21.279z M25.24,24.048c-0.504,0-0.913-0.396-0.913-0.881c0-0.486,0.409-0.882,0.913-0.882   c0.502,0,0.914,0.396,0.914,0.882C26.154,23.652,25.742,24.048,25.24,24.048z"/>
	<path fill="#2C97DF" d="M30.979,20.272h-0.218v-4.655c0-0.186-0.103-0.354-0.271-0.443l-1.251-0.661l-3.148-4.024   c-0.1-0.126-0.254-0.201-0.417-0.201h-2.565h-1.391V7.435c0-0.279-0.233-0.504-0.522-0.504h2.022C0.734,6.931,0.5,7.156,0.5,7.435   v13.299c0,0.278,0.234,0.503,0.522,0.503h2.173v1.762c0,0.278,0.233,0.504,0.522,0.504h2.19c0.177,1.995,1.915,3.566,4.028,3.566   c2.112,0,3.85-1.571,4.027-3.566h9.25c0.177,1.995,1.915,3.566,4.027,3.566s3.851-1.571,4.027-3.566h2.712   c0.288,0,0.521-0.226,0.521-0.504v-2.223C31.5,20.498,31.268,20.272,30.979,20.272z M23.631,11.294h2.784l2.43,3.105h-4.214V11.294   z M1.543,20.229V7.938h29.133v12.291h20.594c-0.009-0.007-0.021-0.015-0.029-0.023c-0.03-0.024-0.062-0.05-0.092-0.074   c-0.021-0.016-0.042-0.031-0.062-0.047c-0.026-0.021-0.053-0.041-0.082-0.061s-0.056-0.038-0.084-0.058   c-0.022-0.015-0.043-0.03-0.065-0.044c-0.038-0.026-0.078-0.049-0.118-0.072c-0.013-0.008-0.024-0.016-0.037-0.022   c-0.222-0.131-0.454-0.238-0.695-0.325c-0.008-0.001-0.015-0.004-0.022-0.007c-0.053-0.019-0.104-0.034-0.158-0.052   c-0.015-0.005-0.028-0.007-0.042-0.012c-0.046-0.014-0.094-0.025-0.14-0.038c-0.019-0.005-0.037-0.009-0.056-0.014   c-0.042-0.01-0.086-0.02-0.129-0.029c-0.022-0.004-0.043-0.008-0.064-0.013c-0.042-0.008-0.083-0.016-0.125-0.021   c-0.023-0.004-0.046-0.007-0.069-0.011c-0.042-0.006-0.083-0.011-0.124-0.016c-0.024-0.003-0.047-0.005-0.071-0.007   c-0.044-0.004-0.088-0.008-0.133-0.011c-0.021,0-0.042-0.003-0.062-0.003c-0.066-0.003-0.131-0.006-0.197-0.006   c-0.065,0-0.131,0.003-0.197,0.006c-0.021,0-0.042,0.003-0.063,0.003c-0.044,0.003-0.088,0.007-0.133,0.011   c-0.024,0.002-0.047,0.004-0.071,0.007c-0.041,0.005-0.082,0.01-0.123,0.016c-0.023,0.004-0.047,0.007-0.07,0.011   c-0.042,0.006-0.083,0.014-0.125,0.021c-0.021,0.005-0.043,0.009-0.065,0.013c-0.043,0.01-0.086,0.02-0.129,0.029   c-0.019,0.005-0.037,0.009-0.055,0.014c-0.047,0.013-0.095,0.024-0.141,0.038c-0.015,0.005-0.028,0.007-0.042,0.012   c-0.053,0.018-0.105,0.033-0.158,0.052c-0.007,0.003-0.014,0.006-0.021,0.007C6.3,19.59,6.067,19.697,5.846,19.828   c-0.013,0.007-0.025,0.015-0.038,0.022c-0.039,0.023-0.079,0.046-0.117,0.072c-0.022,0.014-0.044,0.029-0.065,0.044   c-0.029,0.02-0.057,0.038-0.085,0.058c-0.027,0.02-0.055,0.039-0.082,0.061c-0.021,0.016-0.042,0.031-0.062,0.047   c-0.031,0.024-0.061,0.05-0.091,0.074c-0.011,0.009-0.021,0.017-0.03,0.023h2.543z M4.393,21.286   c-0.049,0.088-0.094,0.175-0.137,0.265c-0.005,0.012-0.011,0.023-0.016,0.036c-0.042,0.091-0.08,0.182-0.115,0.274   c-0.002,0.007-0.005,0.015-0.007,0.022c-0.069,0.189-0.123,0.387-0.161,0.59c-0.001,0.006-0.003,0.016-0.005,0.023H3.239v-1.218   h2.158C4.396,21.283,4.395,21.285,4.393,21.286z M7.935,26.062c-1.655,0-3-1.297-3-2.895c0-0.049,0-0.095,0.003-0.144   c0.004-0.083,0.013-0.168,0.024-0.25c0.001-0.007,0.002-0.015,0.003-0.021c0.012-0.08,0.028-0.16,0.047-0.239   c0.002-0.008,0.004-0.016,0.006-0.022c0.02-0.079,0.042-0.157,0.069-0.235c0.002-0.005,0.004-0.013,0.006-0.019   c0.027-0.077,0.059-0.155,0.093-0.23c0.002-0.003,0.004-0.008,0.006-0.012c0.036-0.077,0.075-0.153,0.117-0.227   c0.001-0.002,0.002-0.002,0.002-0.004c0.132-0.23,0.298-0.443,0.493-0.632c0.001-0.002,0.001-0.004,0.003-0.005   c0.01-0.01,0.021-0.021,0.031-0.029c0.001-0.001,0.003-0.001,0.004-0.003c0.14-0.132,0.29-0.248,0.45-0.351   c0.004-0.001,0.007-0.004,0.011-0.005c0.076-0.049,0.154-0.093,0.232-0.134c0.008-0.003,0.016-0.008,0.024-0.011   c0.077-0.039,0.155-0.073,0.234-0.105c0.009-0.003,0.02-0.008,0.03-0.013c0.08-0.03,0.159-0.056,0.24-0.08   c0.01-0.003,0.021-0.006,0.033-0.009c0.081-0.024,0.166-0.044,0.25-0.06c0.009-0.003,0.018-0.003,0.027-0.004   c0.087-0.017,0.174-0.029,0.264-0.038c0.005,0,0.011,0,0.017-0.001c0.092-0.008,0.186-0.014,0.28-0.014   c0.094,0,0.188,0.006,0.28,0.014c0.005,0.001,0.011,0.001,0.017,0.001c0.089,0.009,0.176,0.021,0.264,0.038   c0.009,0.001,0.018,0.001,0.026,0.004c0.085,0.016,0.168,0.035,0.25,0.06c0.011,0.003,0.021,0.006,0.032,0.009   c0.081,0.022,0.162,0.05,0.239,0.08c0.011,0.005,0.022,0.01,0.032,0.013c0.08,0.032,0.158,0.066,0.233,0.105   c0.008,0.003,0.017,0.008,0.025,0.011c0.079,0.041,0.156,0.085,0.231,0.134c0.004,0.001,0.007,0.004,0.011,0.005   c0.16,0.103,0.311,0.219,0.45,0.351c0.001,0.002,0.002,0.002,0.003,0.003c0.011,0.009,0.021,0.019,0.032,0.029   c0.001,0.001,0.002,0.003,0.003,0.005c0.196,0.188,0.361,0.401,0.493,0.632c0.001,0.002,0.001,0.002,0.002,0.004   c0.043,0.073,0.082,0.149,0.118,0.227c0.001,0.004,0.003,0.009,0.005,0.012c0.034,0.075,0.065,0.153,0.093,0.23   c0.002,0.006,0.004,0.014,0.007,0.019c0.026,0.078,0.049,0.155,0.069,0.234c0.001,0.008,0.004,0.016,0.005,0.023   c0.019,0.079,0.035,0.159,0.047,0.239c0.001,0.007,0.001,0.015,0.002,0.021c0.012,0.082,0.021,0.167,0.025,0.25   c0.002,0.049,0.003,0.095,0.003,0.144C10.935,24.765,9.589,26.062,7.935,26.062z M21.698,21.286   c-0.049,0.088-0.095,0.175-0.138,0.265c-0.005,0.012-0.011,0.023-0.016,0.036c-0.043,0.091-0.08,0.182-0.115,0.274   c-0.003,0.007-0.005,0.015-0.007,0.022c-0.069,0.189-0.123,0.387-0.161,0.59c-0.002,0.006-0.004,0.016-0.005,0.023h-9.338   c-0.002-0.008-0.004-0.018-0.005-0.023c-0.038-0.203-0.092-0.4-0.161-0.59c-0.003-0.008-0.005-0.016-0.007-0.022   c-0.035-0.093-0.073-0.184-0.114-0.274c-0.006-0.013-0.012-0.024-0.018-0.036c-0.042-0.09-0.088-0.177-0.137-0.265   c-0.001-0.001-0.002-0.003-0.003-0.007h20.229C21.701,21.283,21.699,21.285,21.698,21.286z M21.719,11.294h0.869v3.607   c0,0.279,0.233,0.504,0.521,0.504h5.648l0.959,0.509v4.357h-1.768c-0.718-0.625-1.668-1.007-2.709-1.007s-1.991,0.382-2.71,1.007   h-0.812V11.294L21.719,11.294z M25.24,26.062c-1.654,0-3-1.297-3-2.895c0-0.049,0.001-0.095,0.003-0.144   c0.006-0.083,0.014-0.168,0.025-0.25c0.001-0.007,0.002-0.015,0.003-0.021c0.013-0.08,0.027-0.16,0.046-0.239   c0.003-0.008,0.004-0.016,0.007-0.022c0.021-0.079,0.043-0.157,0.069-0.235c0.003-0.005,0.005-0.013,0.007-0.019   c0.027-0.077,0.059-0.155,0.093-0.23c0.002-0.003,0.004-0.008,0.005-0.012c0.036-0.077,0.075-0.153,0.118-0.227   c0.001-0.002,0.001-0.002,0.002-0.004c0.131-0.23,0.298-0.443,0.492-0.632c0.002-0.002,0.002-0.004,0.004-0.005   c0.543-0.529,1.296-0.855,2.126-0.855c0.831,0,1.583,0.328,2.127,0.855c0.001,0.001,0.002,0.003,0.003,0.005   c0.196,0.188,0.361,0.401,0.492,0.632c0,0.002,0.002,0.002,0.002,0.004c0.043,0.073,0.082,0.149,0.118,0.227   c0.001,0.004,0.003,0.009,0.006,0.012c0.033,0.075,0.063,0.153,0.093,0.23c0.001,0.006,0.005,0.014,0.006,0.019   c0.025,0.078,0.05,0.155,0.07,0.234c0.001,0.008,0.003,0.016,0.005,0.023c0.019,0.079,0.035,0.159,0.048,0.239   c0,0.007,0.001,0.015,0.001,0.021c0.014,0.082,0.021,0.167,0.026,0.25c0.003,0.049,0.003,0.095,0.003,0.144   C28.24,24.765,26.895,26.062,25.24,26.062z M30.458,22.497h-1.234c-0.002-0.008-0.003-0.018-0.006-0.023   c-0.038-0.203-0.091-0.4-0.16-0.59c-0.002-0.008-0.005-0.016-0.008-0.022c-0.033-0.093-0.071-0.184-0.113-0.274   c-0.007-0.013-0.011-0.024-0.018-0.036c-0.043-0.09-0.089-0.177-0.137-0.265c0-0.001-0.002-0.003-0.004-0.007h2.68V22.497z"/>
	<path fill="#2C97DF" d="M7.935,21.279c-1.079,0-1.956,0.847-1.956,1.888s0.877,1.888,1.956,1.888s1.957-0.847,1.957-1.888   S9.014,21.279,7.935,21.279z M7.935,24.048c-0.503,0-0.913-0.396-0.913-0.881c0-0.486,0.41-0.882,0.913-0.882   c0.503,0,0.913,0.396,0.913,0.882C8.848,23.652,8.438,24.048,7.935,24.048z"/>
</g>
</svg>