<?xml version="1.0" encoding="utf-8"?>
<!-- Generator: Adobe Illustrator 16.0.4, SVG Export Plug-In . SVG Version: 6.00 Build 0)  -->
<!DOCTYPE svg PUBLIC "-//W3C//DTD SVG 1.1//EN" "http://www.w3.org/Graphics/SVG/1.1/DTD/svg11.dtd">
<svg version="1.1" id="Layer_1" xmlns="http://www.w3.org/2000/svg" xmlns:xlink="http://www.w3.org/1999/xlink" x="0px" y="0px"
	 width="1292.857px" height="351.786px" viewBox="0 0 1292.857 351.786" enable-background="new 0 0 1292.857 351.786"
	 xml:space="preserve">
<path fill-rule="evenodd" clip-rule="evenodd" fill="#0039A6" d="M63.794,50.918c-33.061,33.07-33.055,86.666,0.002,119.725
	c33.063,33.062,86.663,33.062,119.728,0c33.057-33.059,33.057-86.66,0-119.727C150.459,17.863,96.857,17.857,63.794,50.918z"/>
<path fill-rule="evenodd" clip-rule="evenodd" fill="#74C6C8" d="M242.413,51.979c49.707,49.705,49.707,130.297,0,180.004
	c-49.706,49.702-130.3,49.702-180.005,0c-29.957-29.958-41.852-71.128-35.702-110c2.427,21.127,11.736,41.608,27.938,57.808
	c38.118,38.117,99.912,38.117,138.028,0c38.111-38.113,38.111-99.906,0.002-138.027c-14.172-14.168-31.62-23.064-49.904-26.696
	C178.479,12.373,215.104,24.673,242.413,51.979z"/>
<g>
	<path fill="#12110B" d="M405.034,203.83h-62.142l-14.547,29.65h-47.958L368.78,60.859h70.074l15.856,172.621h-47.022
		L405.034,203.83z M402.962,170.205l-5.268-74.79l-0.568,0.009l-37.027,74.781H402.962z"/>
	<path fill="#12110B" d="M592.861,112.61L537.35,233.48h-62.145l-7.56-120.87h41.362l1.7,94.424l1.157,0.022l40.061-94.446H592.861z
		"/>
	<path fill="#12110B" d="M650.059,233.48l5.281-17.936h-1.523c-5.026,12.837-17.996,19.253-38.895,19.253
		c-11.457,0-19.895-1.255-25.308-3.771c-7.933-3.775-11.894-10.706-11.894-20.781c0-4.275,0.437-8.552,1.312-12.836
		c3.016-14.105,8.868-24.109,17.539-30.033c7.916-5.409,19.298-8.123,34.143-8.123c8.918,0,15.203,0.561,18.86,1.705
		c6.903,2.008,10.681,5.983,11.307,11.887l1.881-0.029l4.294-19.029c0.75-3.536,1.13-6.49,1.13-8.891c0-6.298-5.04-9.43-15.115-9.43
		c-10.833,0-17.25,4.336-19.267,13.022H594.33c3.659-16.623,11.779-27.5,24.37-32.672c7.554-3.021,20.651-4.542,39.286-4.542
		c18.136,0,30.659,1.575,37.58,4.738c8.311,3.894,12.466,11.525,12.466,22.847c0,5.534-0.755,11.903-2.261,19.076l-16.25,75.544
		H650.059z M638.91,183.438c-11.467,0-18.138,4.28-20.019,12.841c-0.132,1.251-0.192,2.457-0.192,3.57
		c0,6.309,4.91,9.463,14.724,9.463c7.821,0,13.106-0.635,15.874-1.903c4.658-1.997,7.684-6.286,9.06-12.832
		c0.129-0.76,0.196-1.698,0.196-2.842c0-3.896-2.516-6.416-7.556-7.547C648.849,183.688,644.818,183.438,638.91,183.438z"/>
	<path fill="#12110B" d="M735.93,112.61h39.598l-4.858,22.472h2.702c4.403-8.686,9.941-14.928,16.621-18.708
		c6.166-3.382,14.352-5.1,24.556-5.1c21.397,0,32.104,8.574,32.104,25.693c0,3.536-0.499,7.881-1.515,13.031L826.39,233.48h-39.587
		l16.018-74.414c0.47-2.891,0.72-5.279,0.72-7.169c0-6.805-4.562-10.201-13.668-10.201c-8.096,0-14.23,2.259-18.403,6.78
		c-3.418,3.78-6.01,9.935-7.777,18.484l-14.045,66.519h-39.6L735.93,112.61z"/>
	<path fill="#12110B" d="M972.885,146.974h-37.391c0.375-4.528-1.077-7.553-4.339-9.063c-1.648-0.757-4.856-1.142-9.642-1.142
		c-9.7,0-15.861,0.702-18.507,2.091c-2.015,1.132-3.472,3.657-4.343,7.548c-0.264,1.388-0.375,2.65-0.375,3.789
		c0,4.271,6.354,6.541,19.073,6.798c19.513,0.496,32.604,1.941,39.292,4.33c8.932,3.287,13.399,9.888,13.399,19.839
		c0,3.534-0.567,7.863-1.702,13.033c-3.4,16.12-11.581,27.326-24.552,33.613c-9.95,4.664-24.311,6.987-43.064,6.987
		c-18.38,0-30.6-1.005-36.634-3.021c-10.582-3.396-15.868-11.143-15.868-23.229c0-3.78,0.576-8.061,1.7-12.837h39.468
		c-0.241,1.51-0.375,2.958-0.375,4.339c0,4.15,1.765,6.867,5.29,8.127c2.145,0.75,6.048,1.135,11.72,1.135
		c7.792,0,12.64-0.259,14.53-0.764c4.655-1.256,7.502-4.535,8.502-9.812c0.253-1.644,0.383-3.092,0.383-4.347
		c0-3.53-1.575-5.8-4.729-6.806c-2.016-0.491-6.604-0.75-13.779-0.75c-15.366,0-26.384-0.885-33.05-2.646
		c-13.359-3.404-20.023-10.512-20.023-21.349c0-3.64,0.5-7.67,1.508-12.077c3.657-17.39,11.777-28.772,24.359-34.196
		c8.061-3.516,22.483-5.292,43.255-5.292c14.36,0,24.869,1.016,31.54,3.034c10.955,3.273,16.424,9.814,16.424,19.637
		c0,1.76-0.304,4.16-0.938,7.18L972.885,146.974z"/>
	<path fill="#12110B" d="M1050.447,233.48l5.295-17.936h-1.518c-5.035,12.837-18.008,19.253-38.905,19.253
		c-11.456,0-19.892-1.255-25.307-3.771c-7.936-3.775-11.894-10.706-11.894-20.781c0-4.275,0.438-8.552,1.313-12.836
		c3.021-14.105,8.864-24.109,17.541-30.033c7.917-5.409,19.302-8.123,34.129-8.123c8.93,0,15.212,0.561,18.868,1.705
		c6.908,2.008,10.679,5.983,11.309,11.887l1.889-0.029l4.291-19.029c0.748-3.536,1.124-6.49,1.124-8.891
		c0-6.298-5.036-9.43-15.111-9.43c-10.83,0-17.255,4.336-19.262,13.022h-39.477c3.652-16.623,11.771-27.5,24.361-32.672
		c7.562-3.021,20.651-4.542,39.287-4.542c18.122,0,30.66,1.575,37.585,4.738c8.302,3.894,12.466,11.525,12.466,22.847
		c0,5.534-0.759,11.903-2.265,19.076l-16.241,75.544h2050.447z M1039.309,183.438c-11.456,0-18.141,4.28-20.026,12.841
		c-0.12,1.251-0.188,2.457-0.188,3.57c0,6.309,4.917,9.463,14.731,9.463c7.814,0,13.1-0.635,15.875-1.903
		c4.642-1.997,7.674-6.286,9.057-12.832c0.132-0.76,0.191-1.698,0.191-2.842c0-3.896-2.523-6.416-7.56-7.547
		C1049.245,183.688,1045.22,183.438,1039.309,183.438z"/>
	<path fill="#12110B" d="M1235.856,146.974h-37.397c0.38-4.528-1.077-7.553-4.356-9.063c-1.631-0.757-4.843-1.142-9.617-1.142
		c-9.702,0-15.868,0.702-18.509,2.091c-2.024,1.132-3.472,3.657-4.348,7.548c-0.259,1.388-0.384,2.65-0.384,3.789
		c0,4.271,6.362,6.541,19.078,6.798c19.517,0.496,32.619,1.941,39.283,4.33c8.938,3.287,13.413,9.888,13.413,19.839
		c0,3.534-0.565,7.863-1.703,13.033c-3.397,16.12-11.581,27.326-24.556,33.613c-9.939,4.664-24.288,6.987-43.063,6.987
		c-18.374,0-30.588-1.005-36.631-3.021c-10.578-3.396-15.859-11.143-15.859-23.229c0-3.78,0.563-8.061,1.703-12.837h39.468
		c-0.257,1.51-0.378,2.958-0.378,4.339c0,4.15,1.754,6.867,5.281,8.127c2.145,0.75,6.046,1.135,11.707,1.135
		c7.81,0,12.653-0.259,14.55-0.764c4.658-1.256,7.486-4.535,8.505-9.812c0.241-1.644,0.371-3.092,0.371-4.347
		c0-3.53-1.578-5.8-4.721-6.806c-2.021-0.491-6.619-0.75-13.786-0.75c-15.365,0-26.379-0.885-33.059-2.646
		c-13.344-3.404-20.013-10.512-20.013-21.349c0-3.64,0.496-7.67,1.513-12.077c3.657-17.39,11.758-28.772,24.357-34.196
		c8.061-3.516,22.47-5.292,43.25-5.292c14.352,0,24.864,1.016,31.538,3.034c10.96,3.273,16.436,9.814,16.436,19.637
		c0,1.76-0.317,4.16-0.943,7.18L1235.856,146.974z"/>
</g>
<path fill="#12110B" d="M1247.918,115.45c-3.983,0-7.259-1.231-9.828-3.711c-2.582-2.451-3.869-5.681-3.869-9.644
	c0-1.097,0.137-2.283,0.407-3.539c0.97-4.685,3.436-8.679,7.381-11.98c3.968-3.3,8.328-4.955,13.113-4.955
	c3.954,0,7.221,1.249,9.799,3.733c2.564,2.48,3.852,5.712,3.852,9.628c0,1.269-0.099,2.458-0.324,3.574
	c-0.999,4.627-3.483,8.624-7.464,11.912C1256.999,113.783,1252.656,115.45,1247.918,115.45z M1248.718,111.594
	c3.67,0,7.034-1.28,10.117-3.832c3.083-2.544,5.009-5.614,5.755-9.207c0.17-0.849,0.26-1.747,0.26-2.698
	c0-3.052-1.006-5.559-2.985-7.484c-1.995-1.921-4.521-2.895-7.577-2.895c-3.691,0-7.055,1.278-10.094,3.822
	c-3.029,2.554-4.935,5.627-5.719,9.255c-0.205,0.961-0.312,1.875-0.312,2.732c0,3.076,0.979,5.565,2.957,7.462
	C1243.099,110.64,1245.633,111.594,1248.718,111.594z M1254.995,100.048l2.661,7.336h-4.136l-2.356-7.133h-3.246l-1.53,7.133h-3.669
	l3.723-17.401h8.681c1.778,0,3.074,0.172,3.883,0.512c1.287,0.539,1.935,1.555,1.935,3.079c0,0.487-0.064,1.068-0.207,1.742
	C1260.111,98.239,1258.196,99.823,1254.995,100.048z M1248.492,97.457h5.109c1.088,0,1.905-0.181,2.455-0.53
	c0.54-0.371,0.897-1.057,1.078-2.078c0.072-0.172,0.109-0.344,0.109-0.514c0-0.677-0.397-1.124-1.179-1.356
	c-0.496-0.125-1.261-0.201-2.33-0.201h-4.207L1248.492,97.457z"/>
<g>
	<path fill="#0039A6" d="M795.27,284.094c-2.145-2.104-5.389-3.163-9.745-3.163c-2.443,0-4.606,0.281-6.482,0.862
		c-1.879,0.571-3.512,1.43-4.915,2.568c-2.774,2.314-4.352,5.563-4.714,9.745c-0.246,2.762,0.134,5.139,1.14,7.14
		c0.5,1.01,1.293,2.069,2.337,3.177c1.054,1.104,2.431,2.302,4.121,3.565l0.436,0.354c3.423,2.703,5.045,5.125,4.857,7.251
		c-0.154,1.694-0.68,2.963-1.596,3.82c-0.906,0.858-2.216,1.296-3.909,1.296c-1.805,0-3.074-0.51-3.829-1.515
		c-0.751-1.005-1.019-2.604-0.831-4.821l0.154-1.746c0.04-0.416,0.064-0.706,0.082-0.863l0.032-0.478l-8.888-0.031l-0.431,2.225
		l-0.297,2.113c-0.38,4.29,0.518,7.511,2.693,9.655c1.287,1.265,3.021,2.146,5.181,2.672l-1.829,5.956h9.137l1.74-5.724
		c3.099-0.526,5.704-1.688,7.783-3.524c2.916-2.561,4.573-6.131,4.98-10.71c0.219-2.462-0.251-4.736-1.386-6.823
		c-1.142-2.068-3.052-4.142-5.736-6.188l-1.814-1.296c-2.972-2.181-4.354-4.393-4.16-6.622c0.13-1.456,0.633-2.582,1.506-3.391
		c0.885-0.81,1.991-1.216,3.327-1.216c1.95,0,3.243,0.496,3.86,1.483c0.672,0.992,0.891,2.864,0.647,5.621l-0.114,1.291h9.048
		l0.194-2.149l0.114-1.367C798.312,289.259,797.421,286.203,795.27,284.094z"/>
	<path fill="#0039A6" d="M944.662,284.094c-2.145-2.104-5.397-3.172-9.744-3.172c-2.444,0-4.613,0.29-6.475,0.866
		c-1.877,0.576-3.521,1.435-4.92,2.573c-2.783,2.314-4.354,5.563-4.718,9.745c-0.243,2.762,0.134,5.139,1.14,7.14
		c0.505,1.01,1.289,2.069,2.35,3.177c1.041,1.104,2.418,2.302,4.111,3.565l0.434,0.354c3.418,2.703,5.035,5.115,4.852,7.251
		c-0.139,1.685-0.675,2.963-1.591,3.82c-0.911,0.858-2.207,1.296-3.907,1.296c-1.796,0-3.083-0.51-3.829-1.515
		c-0.75-1.005-1.025-2.604-0.833-4.821l0.154-1.746c0.033-0.416,0.058-0.706,0.073-0.872l0.05-0.469l-8.896-0.031l-0.429,2.225
		l-0.299,2.113c-0.38,4.28,0.526,7.511,2.693,9.655c1.287,1.265,3.021,2.146,5.181,2.672l-1.829,5.956h9.137l1.733-5.728
		c3.107-0.522,5.713-1.685,7.793-3.521c2.913-2.561,4.572-6.131,4.977-10.71c0.213-2.471-0.25-4.736-1.383-6.823
		c-1.135-2.068-3.049-4.142-5.748-6.196l-1.803-1.287c-2.969-2.181-4.363-4.393-4.171-6.631c0.132-1.447,0.644-2.578,1.526-3.382
		c0.873-0.81,1.981-1.216,3.309-1.216c1.966,0,3.252,0.496,3.878,1.483c0.661,0.992,0.871,2.864,0.639,5.621l-0.122,1.291h9.057
		l0.186-2.149l0.122-1.367C947.705,289.259,946.807,286.203,944.662,284.094z"/>
	<polygon fill="#0039A6" points="409.309,327.184 397.912,327.184 415.782,267.079 427.178,267.079 	"/>
	<polygon fill="#0039A6" points="429.186,260.368 417.791,260.368 420.461,251.348 431.863,251.348 	"/>
	<path fill="#0039A6" d="M448.698,341.816l2.435-7.689l0.351,0.04l1.754,0.125c1.562,0,2.76-0.456,3.603-1.341
		c0.833-0.911,1.335-2.318,1.503-4.244l0.131-2.775l0.008-0.504l0.704-43.019h20.465l-2.314,32.635l15.312-32.635h21.128
		l-26.385,49.416c-2.404,4.473-4.5,7.372-6.296,8.668c-1.796,1.292-4.192,1.953-7.161,1.953c-0.446,0-0.882,0-1.294,0
		c-0.439-0.081-0.763-0.135-0.964-0.161L448.698,341.816z"/>
	<path fill="#0039A6" d="M509.617,312.318l9.792-0.005c-0.227,2.649-0.858,4.995-1.886,7.042c-1.026,2.042-2.354,3.789-3.963,5.245
		c-2.956,2.739-6.939,4.106-11.957,4.106c-4.911,0-8.482-1.104-10.708-3.279c-2.224-2.189-3.139-5.527-2.741-10.004
		c0.048-0.648,0.113-1.305,0.168-1.957c0.127-0.59,0.218-1.041,0.267-1.363c0.064-0.599,0.146-1.18,0.259-1.738
		c0.115-0.567,0.292-1.286,0.52-2.167c0.841-3.887,1.697-7.216,2.588-10.021c0.875-2.802,1.766-5.049,2.647-6.733
		c1.885-3.722,4.167-6.407,6.831-8.051c2.663-1.636,6.126-2.462,10.385-2.462c4.806,0,8.213,1.005,10.237,3.011
		c2.016,2.007,2.833,5.17,2.46,9.499c-0.147,1.587-0.444,3.44-0.924,5.572c-0.478,2.126-1.117,4.419-1.932,6.903H500.31
		c-0.227,0.728-0.551,1.975-0.995,3.748c-0.195,0.67-0.366,1.332-0.527,1.979c-0.38,1.645-0.615,2.931-0.696,3.869
		c-0.162,1.846,0.137,3.222,0.874,4.138c0.745,0.916,1.95,1.367,3.626,1.367c1.796,0,3.261-0.697,4.386-2.087
		C508.112,317.537,508.985,315.334,509.617,312.318z M513.379,298.888c0.154-0.55,0.31-1.162,0.478-1.846
		c0.162-0.679,0.269-1.175,0.324-1.487l0.412-2.507c0.139-1.542-0.136-2.69-0.832-3.449c-0.698-0.76-1.781-1.136-3.271-1.131
		c-2.015,0-3.634,0.755-4.865,2.266c-1.231,1.519-2.37,4.24-3.414,8.158L513.379,298.888z"/>
	<path fill="#0039A6" d="M545.38,282.409l-2.387,7.108h0.244c1.464-2.832,3.189-4.955,5.138-6.362
		c1.951-1.398,4.216-2.104,6.807-2.104h2.06h0.696l-3.319,11.59l-1.446-0.12l-1.443-0.031c-2.766,0-4.927,0.621-6.474,1.867
		c-1.545,1.256-2.776,3.369-3.69,6.358l-7.956,26.469h-10.497l13.547-44.774H545.38z"/>
	<path fill="#0039A6" d="M548.602,327.184l13.477-44.774h20.497l-13.476,44.774H548.602z M563.988,276.172l2.622-8.945h20.586
		l-2.704,8.945H563.988z"/>
	<path fill="#0039A6" d="M577.429,327.174l-10.455,0.01l13.474-44.774h9.679l-1.206,3.82c1.958-1.707,3.868-2.998,5.738-3.874
		c1.862-0.876,3.74-1.305,5.617-1.305c2.792,0,4.905,0.737,6.329,2.198c1.424,1.47,2.024,3.562,1.779,6.269
		c-0.016,0.269-0.056,0.567-0.113,0.921c-0.063,0.349-0.144,0.728-0.259,1.144c-0.162,0.898-0.461,2.02-0.93,3.4l-9.63,32.201
		h-10.497l9.372-31.276l0.63-2.257l0.227-1.237c0.097-1.157-0.128-2.068-0.696-2.771c-0.6-0.661-1.48-0.982-2.654-0.982
		c-1.701,0-3.117,0.63-4.258,1.895c-1.149,1.26-2.152,3.351-3.035,6.264L577.429,327.174z"/>
	<path fill="#0039A6" d="M605.174,327.184l13.476-44.774h20.504l-13.476,44.774H605.174z M620.576,276.168l2.615-8.941h20.576
		l-2.701,8.941H620.576z"/>
	<path fill="#0039A6" d="M634.009,327.165l-10.456,0.019l13.469-44.774h9.678l-1.198,3.82c1.959-1.707,3.87-2.998,5.73-3.874
		c1.87-0.876,3.742-1.305,5.628-1.305c2.793,0,4.895,0.729,6.32,2.198c1.432,1.47,2.021,3.562,1.78,6.269
		c-0.018,0.26-0.059,0.567-0.114,0.912c-0.061,0.357-0.145,0.736-0.259,1.152c-0.154,0.898-0.463,2.02-0.923,3.4l-9.631,32.201
		h-10.505l9.381-31.276l0.621-2.261l0.229-1.238c0.103-1.152-0.13-2.063-0.697-2.778c-0.599-0.648-1.472-0.97-2.654-0.97
		c-1.697,0-3.116,0.63-4.258,1.886c-1.131,1.269-2.144,3.359-3.034,6.272L634.009,327.165z"/>
	<path fill="#0039A6" d="M708.282,323.672c-1.399,1.635-2.898,2.863-4.507,3.663c-1.619,0.813-3.366,1.211-5.247,1.211
		c-3.6,0-6.312-1.055-8.123-3.154c-1.814-2.108-2.558-5.071-2.221-8.896c0.357-4.133,1.733-7.436,4.122-9.901
		c2.379-2.471,5.962-4.267,10.729-5.375l1.403-0.312c7.564-1.774,11.514-4.495,11.84-8.15c0.121-1.331-0.203-2.386-0.949-3.146
		c-0.735-0.759-1.843-1.148-3.331-1.148c-1.888,0-3.387,0.519-4.495,1.556c-1.107,1.032-2.006,2.77-2.685,5.196h-10.111
		c1.104-4.799,3.159-8.387,6.17-10.741c3.019-2.364,7.015-3.543,12.011-3.543c4.678,0,8.221,0.947,10.634,2.841
		c2.426,1.908,3.479,4.585,3.181,8.034c-0.033,0.353-0.058,0.684-0.089,1.022c-0.114,0.412-0.194,0.711-0.234,0.89l-0.615,2.542
		l-7.381,24.838l-0.616,2.574l-0.581,3.512h-9.683L708.282,323.672z M712.651,305.518l-3.456,1.439
		c-6.718,2.747-10.212,5.75-10.504,9.025c-0.154,1.715,0.129,3.011,0.842,3.882c0.704,0.867,1.756,1.305,3.173,1.305
		c2.193,0,3.974-0.97,5.344-2.913C709.426,316.33,710.963,312.072,712.651,305.518z"/>
	<path fill="#0039A6" d="M724.081,327.184l18.023-59.957h20.578l-18.098,59.957H724.081z"/>
	<path fill="#0039A6" d="M742.614,327.184l13.476-44.774h20.495l-13.474,44.774H742.614z"/>
	<path fill="#0039A6" d="M813.884,327.184h-11.792l0.51-44.774h20.457l-2.106,33.019l15.111-33.019h21.13L813.884,327.184z"/>
	<path fill="#0039A6" d="M853.032,312.305h9.792c-0.23,2.658-0.858,5.004-1.889,7.051c-1.027,2.037-2.354,3.789-3.963,5.245
		c-2.953,2.734-6.938,4.106-11.952,4.106c-4.914,0-8.484-1.104-10.709-3.289c-2.217-2.18-3.142-5.518-2.744-9.994
		c0.05-0.648,0.112-1.305,0.17-1.957c0.128-0.59,0.219-1.055,0.277-1.367c0.049-0.604,0.136-1.176,0.25-1.734
		c0.112-0.567,0.291-1.286,0.519-2.167c0.84-3.887,1.697-7.22,2.587-10.021c0.876-2.802,1.765-5.054,2.647-6.737
		c1.886-3.727,4.168-6.407,6.831-8.047c2.661-1.636,6.126-2.471,10.382-2.471c4.808,0,8.217,1.014,10.238,3.02
		c2.018,2.007,2.835,5.17,2.462,9.499c-0.146,1.587-0.444,3.44-0.923,5.572c-0.478,2.122-1.117,4.419-1.935,6.894h-21.348
		c-0.229,0.729-0.555,1.979-0.997,3.749c-0.196,0.679-0.366,1.341-0.527,1.988c-0.379,1.645-0.616,2.931-0.696,3.869
		c-0.161,1.846,0.139,3.222,0.875,4.129c0.744,0.911,1.951,1.376,3.617,1.376c1.806,0,3.271-0.697,4.395-2.091
		C851.526,317.532,852.399,315.334,853.032,312.305z M856.794,298.888c0.152-0.55,0.309-1.162,0.47-1.846
		c0.169-0.679,0.274-1.175,0.33-1.487l0.416-2.507c0.136-1.542-0.139-2.699-0.836-3.449c-0.694-0.76-1.778-1.136-3.271-1.136
		c-2.015,0-3.633,0.76-4.863,2.266c-1.231,1.523-2.37,4.236-3.416,8.159H856.794z"/>
	<path fill="#0039A6" d="M888.794,282.409l-2.386,7.108h0.241c1.466-2.832,3.182-4.964,5.141-6.362
		c1.95-1.412,4.216-2.104,6.805-2.104h2.063h0.694l-3.319,11.59l-1.447-0.12l-1.443-0.04c-2.766,0-4.929,0.621-6.473,1.876
		c-1.543,1.242-2.776,3.369-3.692,6.358l-7.953,26.469h-10.5l13.552-44.774H888.794z"/>
	<path fill="#0039A6" d="M892.016,327.184l13.476-44.774h20.497l-13.473,44.774H892.016z M907.401,276.168l2.622-8.941h20.588
		l-2.704,8.941H907.401z"/>
	<path fill="#0039A6" d="M965.242,341.816l2.428-7.689l0.355,0.04l1.747,0.111c1.57,0,2.771-0.442,3.61-1.341
		c0.833-0.902,1.336-2.313,1.506-4.23l0.129-2.775v-0.504l0.713-43.019h20.457l-2.31,32.635l15.316-32.635h21.126l-26.385,49.416
		c-2.403,4.469-4.499,7.359-6.295,8.664c-1.805,1.296-4.191,1.952-7.171,1.952c-0.438,0-0.876,0-1.287,0
		c-0.446-0.076-0.76-0.139-0.965-0.156L965.242,341.816z"/>
	<path fill="#0039A6" d="M1026.159,312.305h9.794c-0.234,2.658-0.858,5.004-1.886,7.051c-1.036,2.037-2.354,3.789-3.968,5.245
		c-2.96,2.734-6.943,4.106-11.961,4.106c-4.91,0-8.474-1.104-10.698-3.289c-2.228-2.18-3.142-5.518-2.743-9.994
		c0.049-0.648,0.104-1.305,0.169-1.957c0.132-0.59,0.22-1.055,0.267-1.367c0.058-0.604,0.139-1.176,0.252-1.743
		c0.114-0.559,0.291-1.277,0.525-2.158c0.835-3.887,1.702-7.22,2.582-10.021c0.885-2.802,1.763-5.054,2.647-6.737
		c1.892-3.727,4.175-6.407,6.836-8.047c2.656-1.636,6.119-2.471,10.377-2.471c4.808,0,8.222,1.014,10.241,3.02
		c2.01,2.007,2.837,5.17,2.457,9.499c-0.137,1.587-0.447,3.44-0.914,5.572c-0.476,2.122-1.117,4.419-1.943,6.894h-21.351
		c-0.216,0.729-0.55,1.979-0.996,3.749c-0.183,0.679-0.362,1.341-0.522,1.988c-0.375,1.645-0.607,2.931-0.69,3.869
		c-0.161,1.846,0.132,3.222,0.873,4.129c0.746,0.911,1.953,1.376,3.619,1.376c1.806,0,3.271-0.697,4.396-2.091
		C1024.646,317.532,1025.529,315.334,1026.159,312.305z M1029.923,298.888c0.154-0.55,0.307-1.162,0.468-1.846
		c0.162-0.679,0.276-1.175,0.326-1.487l0.42-2.507c0.138-1.542-0.144-2.699-0.834-3.449c-0.694-0.76-1.78-1.136-3.268-1.136
		c-2.016,0-3.635,0.76-4.866,2.266c-1.229,1.523-2.37,4.236-3.413,8.159h2029.923z"/>
	<path fill="#0039A6" d="M1061.916,282.409l-2.379,7.108h0.234c1.475-2.842,3.188-4.964,5.139-6.362
		c1.952-1.412,4.218-2.104,6.809-2.104h2.06h0.701l-3.324,11.59l-1.443-0.129l-1.437-0.031c-2.776,0-4.93,0.621-6.477,1.876
		c-1.545,1.242-2.774,3.369-3.689,6.358l-7.958,26.469h-10.505l13.559-44.774h2061.916z"/>
	<path fill="#0039A6" d="M1065.136,327.184l13.478-44.774h20.495l-13.476,44.774h2065.136z M1080.53,276.168l2.622-8.941h20.576
		l-2.703,8.941h2080.53z"/>
	<path fill="#0039A6" d="M451.854,284.094c-2.145-2.104-5.391-3.163-9.745-3.163c-2.444,0-4.604,0.281-6.482,0.866
		c-1.878,0.567-3.513,1.426-4.913,2.564c-2.776,2.314-4.353,5.563-4.718,9.745c-0.243,2.762,0.136,5.139,1.14,7.14
		c0.51,1.01,1.296,2.069,2.339,3.182c1.051,1.099,2.427,2.297,4.12,3.561l0.437,0.354c3.424,2.703,5.043,5.125,4.857,7.251
		c-0.154,1.694-0.681,2.963-1.586,3.825c-0.915,0.854-2.225,1.291-3.918,1.291c-1.804,0-3.074-0.51-3.827-1.506
		c-0.753-1.01-1.021-2.613-0.833-4.82l0.153-1.756c0.041-0.416,0.066-0.706,0.082-0.863l0.032-0.478l-8.887-0.031l-0.429,2.229
		l-0.3,2.108c-0.38,4.29,0.517,7.511,2.695,9.655c1.286,1.265,3.019,2.154,5.181,2.672l-1.829,5.956h9.136l1.739-5.724
		c3.102-0.526,5.707-1.688,7.787-3.524c2.912-2.561,4.573-6.122,4.978-10.701c0.219-2.471-0.25-4.741-1.384-6.823
		c-1.14-2.077-3.05-4.146-5.737-6.196l-1.814-1.292c-2.968-2.18-4.355-4.392-4.159-6.626c0.129-1.456,0.628-2.582,1.504-3.387
		c0.883-0.813,1.991-1.22,3.326-1.22c1.952,0,3.246,0.496,3.861,1.483c0.673,0.996,0.891,2.873,0.648,5.625l-0.114,1.292h9.048
		l0.194-2.149l0.114-1.367C454.896,289.259,454.008,286.203,451.854,284.094z"/>
</g>
</svg>
