<svg width="231px" height="49px" viewBox="0 0 231 49" version="1.1" xmlns="http://www.w3.org/2000/svg" xmlns:xlink="http://www.w3.org/1999/xlink">
    <!-- Generator: Sketch 3.6.1 (26313) - http://www.bohemiancoding.com/sketch -->
    <title>Group@2x</title>
    <desc>Created with Sketch.</desc>
    <defs/>
    <g id="Page-1" stroke="none" stroke-width="1" fill="none" fill-rule="evenodd">
        <g id="Ana-Sayfa-1920" transform="translate(-119.000000, -55.000000)">
            <g id="Group">
                <g transform="translate(119.000000, 55.000000)">
                    <path d="M228.108748,7.46417343 L228.800026,7.46417343 C228.945993,7.46417343 229.056846,7.4419007 229.131551,7.3929007 C229.203502,7.34527133 229.253075,7.25206853 229.277518,7.11500559 C229.286125,7.09136224 229.291633,7.06703357 229.291633,7.04613147 C229.291633,6.95601259 229.238272,6.89433427 229.132928,6.86315245 C229.065452,6.84464895 228.962518,6.83676783 228.818272,6.83676783 L228.248518,6.83676783 L228.108748,7.46417343 Z M228.986961,7.81505455 L229.346715,8.80019441 L228.789354,8.80019441 L228.469879,7.84246713 L228.031977,7.84246713 L227.825764,8.80019441 L227.328649,8.80019441 L227.831616,6.45984476 L229.005551,6.45984476 C229.246534,6.45984476 229.420731,6.48211748 229.530207,6.5294042 C229.704403,6.6017049 229.791846,6.73911049 229.791846,6.94299161 C229.791846,7.00775385 229.782895,7.08690769 229.762928,7.17668392 C229.679961,7.57108252 229.420731,7.78318741 228.986961,7.81505455 L228.986961,7.81505455 Z M228.139731,9.36660699 C228.634436,9.36660699 229.090584,9.19527832 229.506797,8.85193566 C229.924043,8.50893566 230.183616,8.09534825 230.285174,7.61322937 C230.308239,7.49878182 230.318911,7.37816643 230.318911,7.25001259 C230.318911,6.83950909 230.184305,6.50199161 229.914748,6.24362797 C229.647944,5.98423636 229.305059,5.85436923 228.891944,5.85436923 C228.394485,5.85436923 227.938682,6.0256979 227.528321,6.36766993 C227.118993,6.7116979 226.862174,7.1246 226.755108,7.61322937 C226.727567,7.74241119 226.712764,7.86508252 226.712764,7.97953007 C226.712764,8.39346014 226.845993,8.72857902 227.112797,8.98454406 C227.379256,9.2387958 227.72283,9.36660699 228.139731,9.36660699 L228.139731,9.36660699 Z M228.031289,9.88573287 C227.493551,9.88573287 227.049797,9.71988671 226.70278,9.38716643 C226.354387,9.05615944 226.180879,8.6226979 226.180879,8.0884951 C226.180879,7.94183776 226.199125,7.78181678 226.234928,7.61322937 C226.367125,6.98342517 226.699338,6.44442517 227.233289,6.00034126 C227.769993,5.55797063 228.358338,5.33524336 229.005207,5.33524336 C229.539502,5.33524336 229.980502,5.5028028 230.329584,5.83757902 C230.675911,6.17098462 230.850108,6.60513147 230.850108,7.13248112 C230.850108,7.30278182 230.835993,7.46246014 230.805698,7.61322937 C230.67178,8.23652308 230.33578,8.7720965 229.797698,9.21618042 C229.259272,9.66232028 228.671616,9.88573287 228.031289,9.88573287 L228.031289,9.88573287 Z" id="Fill-1" fill="#0A0B09"/>
                    <path d="M140.15307,37.9228818 C139.750284,37.5301965 139.140595,37.3331685 138.324693,37.3331685 C137.865448,37.3331685 137.460251,37.3862804 137.108415,37.4945601 C136.755546,37.6004413 136.449497,37.7594343 136.186825,37.9742804 C135.665611,38.404658 135.369202,39.0132175 135.301038,39.7934483 C135.254562,40.3088049 135.326513,40.7518608 135.514825,41.1274133 C135.609841,41.3165601 135.75753,41.5135881 135.954792,41.7195252 C136.15171,41.9264902 136.407841,42.1492175 136.726628,42.3853084 L136.808562,42.4510986 C137.4513,42.9558329 137.755284,43.4088259 137.719136,43.8056231 C137.692284,44.1222385 137.592103,44.3590147 137.421005,44.5183503 C137.250251,44.6790566 137.00548,44.7599238 136.687038,44.7599238 C136.350005,44.7599238 136.110054,44.6670636 135.969595,44.4789448 C135.828103,44.2908259 135.777152,43.991686 135.812267,43.5774133 L135.841185,43.2522315 C135.848415,43.1737629 135.853923,43.1196231 135.855989,43.0908399 L135.863907,43.0031196 L134.195611,42.9952385 L134.115054,43.4115671 L134.059284,43.8056231 C133.987333,44.6060706 134.156021,45.2070916 134.565693,45.6093713 C134.805644,45.8447769 135.130972,46.0095951 135.537202,46.1065671 L135.192939,47.2195182 L136.907366,47.2195182 L137.23407,46.1507699 C137.815185,46.0531126 138.304038,45.8355252 138.694775,45.4928678 C139.241464,45.0141755 139.551989,44.347707 139.62807,43.4931196 C139.670415,43.0339587 139.581595,42.6083783 139.369185,42.2187769 C139.155398,41.8326021 138.796333,41.4450566 138.291989,41.0629937 L137.951513,40.820735 C137.39553,40.415714 137.135267,40.0021266 137.17107,39.5854552 C137.195857,39.3130427 137.289497,39.102651 137.454743,38.9508538 C137.620333,38.8004273 137.827234,38.7240147 138.078202,38.7240147 C138.444497,38.7240147 138.68789,38.8161895 138.803562,39.0022524 C138.92853,39.1869448 138.969497,39.5357699 138.923366,40.0518119 L138.902366,40.2913294 L140.600267,40.2913294 L140.636415,39.8917909 L140.658103,39.6361685 C140.723857,38.8884902 140.555169,38.3169378 140.15307,37.9228818" id="Fill-3" fill="#005394"/>
                    <path d="M168.18153,37.9228818 C167.776677,37.5301965 167.167677,37.3317979 166.353152,37.3317979 C165.893907,37.3317979 165.486644,37.3862804 165.136874,37.4925042 C164.785382,37.6004413 164.477267,37.7594343 164.213907,37.9742804 C163.692693,38.404658 163.396972,39.0132175 163.329497,39.7934483 C163.283021,40.3088049 163.354628,40.7518608 163.543284,41.1274133 C163.6383,41.3165601 163.784956,41.5135881 163.983251,41.7195252 C164.180169,41.9264902 164.436989,42.1492175 164.755775,42.3853084 L164.83771,42.4510986 C165.478382,42.9558329 165.781677,43.4074552 165.746907,43.8056231 C165.720054,44.1208678 165.620562,44.3590147 165.449464,44.5183503 C165.277333,44.6790566 165.033939,44.7599238 164.715497,44.7599238 C164.377087,44.7599238 164.137825,44.6670636 163.997366,44.4789448 C163.856562,44.2908259 163.804234,43.991686 163.841415,43.5774133 L163.869644,43.2522315 C163.875497,43.1737629 163.881005,43.1196231 163.883759,43.0901545 L163.892366,43.0031196 L162.22407,42.9952385 L162.144202,43.4115671 L162.087054,43.8056231 C162.017169,44.6053853 162.185169,45.2070916 162.594152,45.6093713 C162.834103,45.8447769 163.159431,46.0095951 163.565661,46.1065671 L163.221398,47.2195182 L164.935136,47.2195182 L165.260808,46.1500846 C165.844333,46.0531126 166.333185,45.8355252 166.723234,45.4928678 C167.269234,45.0141755 167.581136,44.347707 167.655841,43.4931196 C167.69612,43.0325881 167.610054,42.6083783 167.396956,42.2187769 C167.183169,41.8326021 166.823415,41.4450566 166.318382,41.0616231 L165.979628,40.820735 C165.421923,40.4133154 165.162349,40.0021266 165.198841,39.582714 C165.222939,39.3130427 165.317956,39.1009378 165.482513,38.9508538 C165.648792,38.8004273 165.855693,38.7240147 166.105284,38.7240147 C166.472956,38.7240147 166.714284,38.8161895 166.832021,39.0022524 C166.956989,39.1869448 166.996923,39.5357699 166.951825,40.0511266 L166.930136,40.2913294 L168.628038,40.2913294 L168.664185,39.8917909 L168.686562,39.6361685 C168.752316,38.8884902 168.583628,38.3169378 168.18153,37.9228818" id="Fill-5" fill="#005394"/>
                    <path d="M67.7420066,45.9699497 L65.6024164,45.9699497 L68.9558754,34.7444951 L71.0944328,34.7444951 L67.7420066,45.9699497 Z" id="Fill-7" fill="#005394"/>
                    <path d="M71.4714,33.4917399 L69.3324984,33.4917399 L69.8334,31.8092923 L71.9729902,31.8092923 L71.4714,33.4917399 Z" id="Fill-9" fill="#005394"/>
                    <path d="M75.131218,48.7025049 L75.5887426,47.266428 L75.6527754,47.2743091 L75.982923,47.2962392 C76.276923,47.2962392 76.5006934,47.2126308 76.6597426,47.0460993 C76.8156934,46.8761413 76.909677,46.614351 76.9410049,46.2531902 L76.9657918,45.7350923 L76.9671689,45.6418895 L77.0993656,37.6096587 L79.0623492,37.6096587 L78.6278902,43.7031343 L81.5011033,37.6096587 L83.5893984,37.6096587 L78.6392508,46.837421 C78.1886115,47.6717916 77.7951197,48.2125049 77.4580869,48.455449 C77.1213984,48.6970224 76.6717918,48.8210643 76.1144311,48.8210643 L75.8706934,48.8210643 C75.7894475,48.8049594 75.7292016,48.795365 75.6903,48.7902252 L75.131218,48.7025049 Z" id="Fill-11" fill="#005394"/>
                    <path d="M87.2661197,40.6855566 C87.295382,40.5837874 87.3239557,40.4679692 87.3563164,40.3428993 C87.3862672,40.2144028 87.4058902,40.1225706 87.4165623,40.0646615 L87.4950541,39.5965916 C87.5201852,39.3080741 87.4682016,39.0935706 87.3380705,38.9520531 C87.2079393,38.8095077 87.0037918,38.7385776 86.7242508,38.7385776 C86.3465951,38.7385776 86.0426115,38.8804378 85.8119557,39.1645007 C85.5819885,39.4468503 85.3671689,39.9546685 85.1712836,40.6855566 L87.2661197,40.6855566 Z M86.560382,43.1931231 L88.3983984,43.1931231 C88.354677,43.6886056 88.2365951,44.1275497 88.0434639,44.5096126 C87.8499885,44.8903049 87.6028082,45.2151441 87.2998574,45.488242 C86.7452508,46.000172 85.9975131,46.2530531 85.0566443,46.2530531 C84.1364311,46.2530531 83.4664967,46.0488294 83.0489066,45.6420951 C82.6302836,45.2336476 82.4595295,44.6100112 82.5335459,43.7742699 C82.5438738,43.6536545 82.5538574,43.5313259 82.5648738,43.4086545 C82.5889721,43.2969483 82.6061852,43.2119692 82.6158246,43.1550881 C82.6271852,43.0426965 82.642677,42.9340741 82.663677,42.8312769 C82.6860541,42.7240252 82.718759,42.5883329 82.7624803,42.4235147 C82.9191197,41.6987944 83.0798902,41.0765287 83.2472016,40.5529483 C83.4121033,40.0310811 83.5780377,39.6120112 83.7436279,39.2953958 C84.0975295,38.6008294 84.5268246,38.0988364 85.0256607,37.793186 C85.524841,37.4865077 86.1744639,37.3333399 86.9728082,37.3333399 C87.8744311,37.3333399 88.5151033,37.5207734 88.8941361,37.8952979 C89.2731689,38.270165 89.4260213,38.8605636 89.3554475,39.6688923 C89.3292836,39.9646056 89.2714475,40.3120601 89.1826279,40.7095427 C89.0934639,41.1070252 88.9729721,41.5353469 88.8201197,41.9979343 L84.8135951,41.9979343 C84.7726279,42.1356825 84.7106607,42.3666336 84.6270049,42.6966126 C84.5922344,42.8237385 84.5595295,42.9477804 84.5285459,43.0694238 C84.4579721,43.3754168 84.4139066,43.6156196 84.3980705,43.7914028 C84.3677754,44.1354308 84.4235459,44.3931091 84.5615951,44.5637524 C84.7013656,44.7343958 84.9278902,44.8190322 85.2425459,44.8190322 C85.579923,44.8190322 85.8546443,44.6884797 86.0653328,44.4301161 C86.2770541,44.1683259 86.4426443,43.758165 86.560382,43.1931231 L86.560382,43.1931231 Z" id="Fill-13" fill="#005394"/>
                    <path d="M93.2708803,37.6096587 L92.8223066,38.9367706 L92.8667164,38.9367706 C93.1435033,38.407365 93.466077,38.0119385 93.8320279,37.7487776 C94.1976344,37.4866448 94.6241754,37.3547217 95.1088967,37.3547217 L95.3082246,37.3547217 L95.4383557,37.3547217 L94.8159295,39.5196308 L94.5446508,39.4977007 L94.2740607,39.4915329 C93.7542246,39.4915329 93.3497164,39.607351 93.059159,39.840358 C92.7692902,40.074393 92.5376016,40.4701622 92.3668475,41.0290364 L90.873782,45.9704979 L88.9052902,45.9704979 L91.447323,37.6096587 L93.2708803,37.6096587 Z" id="Fill-15" fill="#005394"/>
                    <path d="M96.7613902,36.4444867 L97.2529967,34.7740322 L99.2383574,34.7740322 L98.7319475,36.4444867 L96.7613902,36.4444867 Z M93.8740623,45.9700182 L96.4030131,37.6095217 L98.372882,37.6095217 L95.8432426,45.9700182 L93.8740623,45.9700182 Z" id="Fill-17" fill="#005394"/>
                    <path d="M99.2828705,45.9679622 L97.3212639,45.9700182 L99.8502148,37.6095217 L101.666543,37.6095217 L101.439674,38.3229343 C101.806313,38.0039203 102.165034,37.7616615 102.516182,37.5988993 C102.864575,37.437165 103.216756,37.3545846 103.568592,37.3545846 C104.09428,37.3545846 104.490182,37.4926755 104.756985,37.7674867 C105.024821,38.0398993 105.136362,38.4308713 105.090231,38.9366336 C105.087821,38.9856336 105.079903,39.0425147 105.06992,39.1079622 C105.057526,39.1730671 105.042034,39.2453678 105.02069,39.3217804 C104.991428,39.4889972 104.93428,39.6990462 104.847526,39.9574098 L103.040149,45.9700182 L101.069936,45.9700182 L102.829461,40.1301091 L102.947198,39.7096685 L102.989543,39.4763189 C103.007444,39.2614727 102.9651,39.0894587 102.85769,38.9602769 C102.747182,38.8369203 102.58228,38.7755846 102.360575,38.7755846 C102.041789,38.7755846 101.77533,38.895172 101.561887,39.1288643 C101.347411,39.3656406 101.158756,39.7538713 100.992477,40.2980112 L99.2828705,45.9679622 Z" id="Fill-19" fill="#005394"/>
                    <path d="M107.376546,36.4431503 L107.867808,34.7747517 L109.852136,34.7747517 L109.34607,36.4431503 L107.376546,36.4431503 Z M104.488185,45.9700524 L107.016448,37.6095559 L108.986661,37.6095559 L106.458398,45.9700524 L104.488185,45.9700524 Z" id="Fill-21" fill="#005394"/>
                    <path d="M109.899197,45.9672769 L107.935869,45.9700182 L110.464131,37.6095217 L112.280115,37.6095217 L112.054623,38.3236196 C112.421607,38.0039203 112.780328,37.7616615 113.130098,37.5988993 C113.479525,37.4364797 113.831016,37.3552699 114.184918,37.3552699 C114.707852,37.3552699 115.104443,37.4913049 115.370902,37.7674867 C115.63977,38.0398993 115.750279,38.4308713 115.70518,38.9359483 C115.702426,38.9849483 115.694164,39.0425147 115.683492,39.1069343 C115.672131,39.1730671 115.656639,39.2453678 115.634607,39.3214378 C115.605689,39.4896825 115.548541,39.6990462 115.462475,39.9574098 L113.654754,45.9700182 L111.684541,45.9700182 L113.443721,40.1301091 L113.561459,39.7069273 L113.604148,39.4763189 C113.623082,39.2614727 113.579361,39.0894587 113.472984,38.958221 C113.360754,38.8369203 113.195852,38.7762699 112.974492,38.7762699 C112.655705,38.7762699 112.390279,38.895172 112.177525,39.1288643 C111.962705,39.3656406 111.773016,39.7538713 111.606049,40.2986965 L109.899197,45.9672769 Z" id="Fill-23" fill="#005394"/>
                    <path d="M124.653211,41.9243315 L124.004966,42.1933175 C122.743589,42.7052476 122.087425,43.2668629 122.034408,43.877821 C122.00549,44.1992336 122.05713,44.4401217 122.191048,44.6045972 C122.322556,44.7659888 122.520507,44.8475413 122.785933,44.8475413 C123.197326,44.8475413 123.532293,44.6669608 123.789802,44.3027161 C124.045933,43.9429259 124.334425,43.1489888 124.653211,41.9243315 L124.653211,41.9243315 Z M123.832834,45.3128699 C123.570507,45.6205762 123.2889,45.8481007 122.986293,46.0002406 C122.684375,46.1499818 122.355605,46.2236531 122.003425,46.2236531 C121.326949,46.2236531 120.818474,46.0269678 120.479031,45.6353105 C120.1389,45.2419399 119.998785,44.6888909 120.06213,43.974793 C120.128572,43.203814 120.386769,42.5863455 120.835343,42.1251287 C121.282539,41.6639119 121.953507,41.3294783 122.849277,41.1211427 L123.111261,41.0628909 C124.53031,40.7318839 125.272539,40.2244084 125.333818,39.5425203 C125.355162,39.2927231 125.295949,39.0967231 125.15549,38.9541776 C125.017097,38.8130028 124.808474,38.7393315 124.528244,38.7393315 C124.17572,38.7393315 123.894802,38.8363035 123.686179,39.0285343 C123.478589,39.2224783 123.310589,39.5466322 123.183211,40.0003105 L121.285982,40.0003105 C121.491507,39.1046042 121.878113,38.4347091 122.443048,37.9943944 C123.010048,37.5540797 123.759507,37.3334084 124.696933,37.3334084 C125.573769,37.3334084 126.238539,37.5098769 126.692621,37.8652126 C127.147048,38.218835 127.343966,38.7180867 127.288884,39.3650238 C127.283031,39.4280727 127.277523,39.4914643 127.271326,39.553828 C127.249982,39.6316112 127.235179,39.6884923 127.227949,39.7210448 L127.112277,40.1942545 L125.727654,44.832807 L125.61267,45.3128699 L125.503884,45.9700867 L123.686179,45.9700867 L123.832834,45.3128699 Z" id="Fill-25" fill="#005394"/>
                    <path d="M126.796795,45.9699497 L130.176762,34.774649 L132.161779,34.774649 L128.767008,45.9699497 L126.796795,45.9699497 Z" id="Fill-27" fill="#005394"/>
                    <path d="M130.273707,45.9699497 L132.80128,37.6097958 L134.771149,37.6097958 L132.24392,45.9699497 L130.273707,45.9699497 Z" id="Fill-29" fill="#005394"/>
                    <path d="M143.645474,45.9699497 L141.432556,45.9699497 L141.527572,37.6097958 L143.488834,37.6097958 L143.094654,43.775572 L145.930343,37.6097958 L148.017949,37.6097958 L143.645474,45.9699497 Z" id="Fill-31" fill="#005394"/>
                    <path d="M151.69529,40.6855566 C151.72352,40.5837874 151.753126,40.4679692 151.783421,40.3415287 C151.815782,40.2144028 151.834372,40.1225706 151.845733,40.0646615 L151.923192,39.5965916 C151.948667,39.3080741 151.896339,39.0922 151.766552,38.9520531 C151.636077,38.8095077 151.432274,38.7385776 151.152733,38.7385776 C150.774733,38.7385776 150.471438,38.8804378 150.240782,39.1645007 C150.009782,39.4468503 149.796339,39.9526126 149.60011,40.6855566 L151.69529,40.6855566 Z M150.989208,43.1924378 L152.826192,43.1924378 C152.783159,43.6886056 152.665421,44.1275497 152.471946,44.5096126 C152.280192,44.8879063 152.031634,45.2151441 151.729716,45.488242 C151.173389,46.000172 150.426339,46.2530531 149.485126,46.2530531 C148.564569,46.2530531 147.895667,46.0488294 147.477389,45.6400392 C147.060487,45.2319343 146.888356,44.6100112 146.963061,43.7742699 C146.972356,43.6536545 146.983028,43.5313259 146.994733,43.4086545 C147.018143,43.2969483 147.035011,43.2105986 147.046372,43.1537175 C147.054979,43.0413259 147.071848,42.9340741 147.092159,42.8312769 C147.114192,42.7240252 147.147241,42.5883329 147.190274,42.4235147 C147.346225,41.6987944 147.509061,41.0765287 147.674995,40.5529483 C147.839897,40.0310811 148.007208,39.6120112 148.17211,39.2953958 C148.526356,38.5987734 148.95393,38.0988364 149.454143,37.793186 C149.952979,37.4865077 150.601913,37.3326545 151.402667,37.3326545 C152.303946,37.3326545 152.94393,37.5207734 153.322618,37.8952979 C153.700962,38.270165 153.855536,38.8605636 153.784274,39.6688923 C153.757421,39.9646056 153.700962,40.3120601 153.612143,40.7095427 C153.521602,41.1053119 153.401798,41.5353469 153.248602,41.9965636 L149.24311,41.9965636 C149.200766,42.1332839 149.13811,42.3666336 149.056175,42.6966126 C149.020028,42.8237385 148.986979,42.9477804 148.956684,43.0694238 C148.886798,43.3754168 148.8417,43.6156196 148.826897,43.7914028 C148.796602,44.1354308 148.853061,44.3931091 148.99111,44.5613538 C149.130192,44.7326825 149.356028,44.8190322 149.669995,44.8190322 C150.009093,44.8190322 150.283815,44.6884797 150.494503,44.4287455 C150.706225,44.1683259 150.87147,43.758165 150.989208,43.1924378 L150.989208,43.1924378 Z" id="Fill-33" fill="#005394"/>
                    <path d="M157.699018,37.6096587 L157.251133,38.9367706 L157.296231,38.9367706 C157.571985,38.407365 157.892493,38.0098825 158.26051,37.7487776 C158.625428,37.4859594 159.051969,37.3547217 159.53669,37.3547217 L159.737051,37.3547217 L159.867526,37.3547217 L159.244067,39.5196308 L158.973821,39.4977007 L158.702198,39.4901622 C158.182362,39.4901622 157.778887,39.607351 157.487985,39.840358 C157.197428,40.0737077 156.966772,40.4701622 156.796018,41.0290364 L155.30192,45.9704979 L153.333772,45.9704979 L155.875461,37.6096587 L157.699018,37.6096587 Z" id="Fill-35" fill="#005394"/>
                    <path d="M161.190733,36.4431503 L161.682339,34.7747517 L163.666323,34.7747517 L163.160946,36.4431503 L161.190733,36.4431503 Z M158.302716,45.9700524 L160.830979,37.6095559 L162.801192,37.6095559 L160.272241,45.9700524 L158.302716,45.9700524 Z" id="Fill-37" fill="#005394"/>
                    <path d="M172.059885,48.7025049 L172.517066,47.266428 L172.582475,47.2743091 L172.911934,47.2962392 C173.204902,47.2962392 173.429705,47.2126308 173.588066,47.0447287 C173.744361,46.8761413 173.837656,46.6122951 173.870705,46.2531902 L173.894115,45.7350923 L173.894115,45.6418895 L174.028033,37.6096587 L175.989984,37.6096587 L175.556902,43.7031343 L178.429426,37.6096587 L180.517721,37.6096587 L175.567574,46.837421 C175.117279,47.6717916 174.723098,48.2101063 174.38641,48.4540783 C174.047311,48.6970224 173.600459,48.820379 173.041721,48.820379 L172.798672,48.820379 C172.716738,48.8049594 172.657525,48.7936517 172.619311,48.7902252 L172.059885,48.7025049 Z" id="Fill-39" fill="#005394"/>
                    <path d="M184.194443,40.6855566 C184.224049,40.5837874 184.252967,40.4679692 184.283262,40.3415287 C184.313557,40.2144028 184.334902,40.1225706 184.344541,40.0646615 L184.423721,39.5965916 C184.449197,39.3080741 184.39618,39.0922 184.267082,38.9520531 C184.136607,38.8095077 183.932115,38.7385776 183.653262,38.7385776 C183.275262,38.7385776 182.971967,38.8804378 182.740623,39.1645007 C182.509967,39.4468503 182.29618,39.9526126 182.099951,40.6855566 L184.194443,40.6855566 Z M183.489049,43.1924378 L185.326721,43.1924378 C185.283,43.6886056 185.164574,44.1275497 184.972475,44.5096126 C184.778656,44.8879063 184.531475,45.2151441 184.229557,45.488242 C183.67323,46.000172 182.924803,46.2530531 181.984967,46.2530531 C181.062344,46.2530531 180.39482,46.0488294 179.977918,45.6400392 C179.558951,45.2319343 179.388197,44.6100112 179.462213,43.7742699 C179.472885,43.6536545 179.48218,43.5313259 179.493197,43.4086545 C179.517984,43.2969483 179.534852,43.2105986 179.544836,43.1537175 C179.554131,43.0413259 179.569623,42.9340741 179.592,42.8285357 C179.611967,42.7240252 179.647082,42.5883329 179.690803,42.4235147 C179.847443,41.6987944 180.008213,41.0765287 180.174148,40.5529483 C180.340426,40.0310811 180.506361,39.6120112 180.670574,39.2953958 C181.027574,38.5987734 181.455148,38.0988364 181.953984,37.793186 C182.45282,37.4865077 183.103131,37.3326545 183.901131,37.3326545 C184.803098,37.3326545 185.44377,37.5207734 185.82177,37.8952979 C186.200115,38.270165 186.354,38.8605636 186.282738,39.6688923 C186.257262,39.9646056 186.200115,40.3120601 186.111295,40.7095427 C186.022131,41.1053119 185.901639,41.5353469 185.747754,41.9965636 L181.742262,41.9965636 C181.701295,42.1332839 181.639328,42.3666336 181.555328,42.6966126 C181.520213,42.8237385 181.488197,42.9477804 181.457213,43.0694238 C181.386639,43.3754168 181.34223,43.6156196 181.326738,43.7914028 C181.296443,44.1354308 181.350836,44.3931091 181.490262,44.5613538 C181.630721,44.7326825 181.855869,44.8190322 182.169836,44.8190322 C182.508246,44.8190322 182.782967,44.6884797 182.995033,44.4287455 C183.206066,44.1683259 183.370623,43.758165 183.489049,43.1924378 L183.489049,43.1924378 Z" id="Fill-41" fill="#005394"/>
                    <path d="M190.198205,37.6096587 L189.751008,38.9367706 L189.796107,38.9367706 C190.072549,38.4046238 190.394434,38.0098825 190.760385,37.7487776 C191.125992,37.4859594 191.551844,37.3547217 192.037254,37.3547217 L192.234861,37.3547217 L192.36809,37.3547217 L191.743254,39.5196308 L191.473697,39.4970154 L191.204139,39.4901622 C190.682926,39.4901622 190.278074,39.607351 189.988549,39.840358 C189.697992,40.0737077 189.467336,40.4701622 189.295893,41.0290364 L187.803172,45.9704979 L185.83227,45.9704979 L188.376025,37.6096587 L190.198205,37.6096587 Z" id="Fill-43" fill="#005394"/>
                    <path d="M193.691262,36.4431503 L194.182869,34.7747517 L196.167541,34.7747517 L195.65941,36.4431503 L193.691262,36.4431503 Z M190.80118,45.9700524 L193.330131,37.6095559 L195.300344,37.6095559 L192.772082,45.9700524 L190.80118,45.9700524 Z" id="Fill-45" fill="#005394"/>
                    <path d="M75.7240721,37.9228818 C75.3205967,37.5301965 74.7122852,37.3331685 73.8950066,37.3331685 C73.4364492,37.3331685 73.0305639,37.3862804 72.6797607,37.4945601 C72.3275803,37.6004413 72.0201541,37.7594343 71.7578262,37.9742804 C71.2362689,38.404658 70.9405475,39.0132175 70.8727279,39.7934483 C70.8255639,40.3088049 70.897859,40.7518608 71.0858262,41.1274133 C71.1825639,41.3165601 71.3288754,41.5135881 71.5261377,41.7195252 C71.7227115,41.9264902 71.9798754,42.1492175 72.298318,42.3853084 L72.3802525,42.4510986 C73.0226459,42.9558329 73.325941,43.4088259 73.290482,43.8056231 C73.2632852,44.1222385 73.1634492,44.3590147 72.9930393,44.5183503 C72.8222852,44.6790566 72.576482,44.7599238 72.2573508,44.7599238 C71.9206623,44.7599238 71.6814,44.6670636 71.5402525,44.4803154 C71.3997934,44.2908259 71.3491869,43.991686 71.3839574,43.5794692 L71.4132197,43.2522315 C71.4207934,43.1737629 71.4252689,43.1196231 71.4276787,43.0908399 L71.4352525,43.0031196 L69.7673016,42.9972944 L69.6864,43.4115671 L69.6295967,43.8056231 C69.5593672,44.6060706 69.7280557,45.2070916 70.1360066,45.6093713 C70.3773344,45.8447769 70.7019738,46.0109657 71.1085475,46.1065671 L70.7635967,47.2195182 L72.4794,47.2195182 L72.8054164,46.1507699 C73.3868754,46.0531126 73.8750393,45.8355252 74.2664656,45.4928678 C74.8128098,45.0141755 75.1243672,44.3483923 75.1987279,43.4944902 C75.2407279,43.0339587 75.1532852,42.6083783 74.9401869,42.2208329 C74.7264,41.8326021 74.3673344,41.4464273 73.8633344,41.0629937 L73.5238918,40.8221056 C72.9668754,40.415714 72.7066131,40.0021266 72.7420721,39.5854552 C72.7672033,39.3130427 72.8611869,39.102651 73.0257443,38.9508538 C73.1913344,38.8011126 73.3989246,38.7240147 73.6492033,38.7240147 C74.0158426,38.7240147 74.2585475,38.8161895 74.3742197,39.0022524 C74.4988426,39.1869448 74.5411869,39.5378259 74.4943672,40.0518119 L74.4733672,40.2913294 L76.1726459,40.2913294 L76.2074164,39.8917909 L76.2294492,39.6361685 C76.294859,38.8884902 76.1275475,38.3169378 75.7240721,37.9228818" id="Fill-47" fill="#005394"/>
                    <path d="M29.7988623,5.10004336 C36.6069934,11.8760923 36.6069934,22.8654559 29.7988623,29.6401343 C22.9893541,36.4172112 11.9488623,36.4172112 5.14107541,29.6401343 C1.04091148,25.5577147 -0.589859016,19.9453301 0.252206557,14.645449 C0.584763934,17.5265119 1.86025574,20.3167706 4.07971475,22.5272531 C9.30182951,27.7215958 17.7631082,27.7215958 22.9835016,22.5251972 C28.2059607,17.3294839 28.2059607,8.90730909 22.9848787,3.70816923 C21.0435836,1.77763776 18.6530262,0.565316084 16.1502393,0.0684629371 C21.0411738,-0.297495105 26.0577639,1.3780993 29.7988623,5.10004336" id="Fill-49" fill="#69C1B8"/>
                    <path d="M5.33251967,4.95814895 C0.802027869,9.46683427 0.804093443,16.7726315 5.33251967,21.2796035 C9.86301148,25.7858902 17.2026836,25.7858902 21.7317984,21.2796035 C26.2609131,16.7726315 26.2609131,9.46683427 21.7317984,4.95814895 C17.2026836,0.449463636 9.86025738,0.449463636 5.33251967,4.95814895" id="Fill-51" fill="#195394"/>
                    <path d="M51.4613262,21.1041972 L50.7552443,11.1051133 L50.6770967,11.1071692 L45.7056049,21.1041972 L51.4613262,21.1041972 Z M51.7398344,25.5978056 L43.3928508,25.5991762 L41.4401951,29.5613231 L34.9990475,29.5613231 L46.8702443,6.48472168 L56.2806541,6.48472168 L58.4123262,29.5606378 L52.0954574,29.5606378 L51.7398344,25.5978056 Z" id="Fill-53" fill="#0A0B09"/>
                    <path d="M76.965482,13.4034531 L69.5125475,29.5604322 L61.1648754,29.5604322 L60.1489574,13.4034531 L65.7067279,13.4034531 L65.9304984,26.0269497 L66.0892033,26.0296909 L71.4683016,13.4034531 L76.965482,13.4034531 Z" id="Fill-55" fill="#0A0B09"/>
                    <path d="M83.1512902,22.8713839 C81.6107164,22.8713839 80.7152902,23.445335 80.4639787,24.5887825 C80.4447,24.754286 80.436782,24.9173909 80.436782,25.0657615 C80.436782,25.9090413 81.0957,26.3329084 82.4138803,26.3329084 C83.4638803,26.3329084 84.1740934,26.2465587 84.5469295,26.0766007 C85.171077,25.8086427 85.5769623,25.2364049 85.7611426,24.3592021 C85.7780115,24.2598315 85.7890279,24.1330483 85.7890279,23.9819364 C85.7890279,23.4614399 85.4509623,23.1232371 84.7741426,22.9731531 C84.4853066,22.9046217 83.945159,22.8713839 83.1512902,22.8713839 L83.1512902,22.8713839 Z M84.6488311,29.5600552 L85.3590443,27.1645378 L85.1542082,27.1645378 C84.478077,28.8805657 82.735077,29.739265 79.9293393,29.739265 C78.3908311,29.739265 77.2585525,29.569307 76.5290607,29.2352161 C75.4649459,28.7280832 74.9330607,27.8039364 74.9330607,26.4545517 C74.9330607,25.8829993 74.9929623,25.3128175 75.1103557,24.7374958 C75.5138311,22.8539084 76.3001262,21.5182301 77.4651098,20.7256636 C78.527159,20.0029993 80.0556836,19.6394399 82.0496508,19.6394399 C83.2483721,19.6394399 84.092159,19.7137965 84.5847984,19.8666217 C85.5098311,20.1338944 86.0193393,20.6663839 86.0995525,21.4565517 L86.3546508,21.4538105 L86.9292246,18.9085517 C87.0311262,18.4367126 87.0817328,18.0409434 87.0817328,17.7195308 C87.0817328,16.876251 86.4062902,16.4585517 85.0533393,16.4585517 C83.5984869,16.4585517 82.735077,17.0390133 82.4634541,18.1999364 L77.1631918,18.1999364 C77.6534213,15.9784888 78.7447328,14.5235657 80.436782,13.8331112 C81.4489131,13.4277476 83.2094705,13.2269503 85.7126016,13.2269503 C88.1468803,13.2269503 89.8292902,13.4356287 90.7587984,13.8570972 C91.8762738,14.3796497 92.4336344,15.3993979 92.4336344,16.9122301 C92.4336344,17.6533979 92.3337984,18.5066147 92.1306836,19.4639993 L89.9484049,29.5600552 L84.6488311,29.5600552 Z" id="Fill-57" fill="#0A0B09"/>
                    <path d="M96.1824787,13.4034531 L101.499266,13.4034531 L100.846889,16.408558 L101.075479,16.408558 C101.668643,15.246607 102.410184,14.4129217 103.306643,13.9075021 C104.135626,13.4555371 105.23761,13.2269846 106.606052,13.2269846 C109.479954,13.2269846 110.918282,14.3718028 110.918282,16.6600685 C110.918282,17.1339636 110.851151,17.7137399 110.716544,18.4035091 L108.331151,29.5604322 L103.013675,29.5604322 L105.16497,19.6141175 C105.23038,19.2299986 105.261708,18.908586 105.261708,18.6567329 C105.261708,17.7483483 104.648921,17.2912434 103.425413,17.2912434 C102.338577,17.2912434 101.51338,17.5944951 100.954298,18.1979147 C100.493331,18.7053902 100.148725,19.5263972 99.9108393,20.6705301 L98.0229049,29.5604322 L92.7040525,29.5604322 L96.1824787,13.4034531 Z" id="Fill-59" fill="#0A0B09"/>
                    <path d="M128.005741,17.9975287 L122.984331,17.9975287 C123.034938,17.3906825 122.839052,16.9866895 122.400807,16.7879483 C122.180134,16.6841231 121.749118,16.6334098 121.107069,16.6334098 C119.802659,16.6334098 118.976085,16.7255846 118.620462,16.9123329 C118.350216,17.0644727 118.15261,17.4016476 118.036249,17.9228294 C118.00079,18.106151 117.986331,18.2774797 117.986331,18.4289343 C117.986331,19.001172 118.841134,19.3023678 120.549708,19.3366336 C123.168511,19.4044797 124.927692,19.5949972 125.824495,19.9146965 C127.023905,20.3550112 127.625331,21.2376965 127.625331,22.5709762 C127.625331,23.0400741 127.548561,23.6208783 127.397085,24.3099622 C126.939905,26.4659622 125.839987,27.9616615 124.099052,28.8049413 C122.763659,29.426179 120.836823,29.7386825 118.316134,29.7386825 C115.847085,29.7386825 114.205298,29.6040182 113.39697,29.3343469 C111.974134,28.8799832 111.263577,27.8431021 111.263577,26.2288434 C111.263577,25.7230811 111.341036,25.1508434 111.493889,24.5121301 L116.791741,24.5121301 C116.760757,24.7153259 116.744577,24.907214 116.744577,25.0919063 C116.744577,25.6473538 116.98143,26.0115986 117.452725,26.1795007 C117.742593,26.2798993 118.264151,26.3326685 119.028069,26.3326685 C120.074282,26.3326685 120.723905,26.2966895 120.980036,26.2288434 C121.604528,26.0623119 121.986659,25.6240531 122.119544,24.917151 C122.155348,24.6985357 122.171528,24.504249 122.171528,24.3360042 C122.171528,23.864165 121.960151,23.5598853 121.537397,23.4265916 C121.267151,23.3601161 120.649889,23.3265357 119.686987,23.3265357 C117.623479,23.3265357 116.142807,23.2083189 115.247725,22.9732559 C113.453774,22.518207 112.558692,21.5683608 112.558692,20.1185776 C112.558692,19.6323469 112.625134,19.0926615 112.761118,18.5056895 C113.253069,16.1793888 114.341626,14.6597035 116.032643,13.9329273 C117.115003,13.4631441 119.052167,13.2267105 121.843446,13.2267105 C123.770282,13.2267105 125.183134,13.3582909 126.077872,13.6300182 C127.548561,14.0665636 128.284249,14.9413678 128.284249,16.2561441 C128.284249,16.490179 128.242249,16.8122769 128.158249,17.2162699 L128.005741,17.9975287 Z" id="Fill-61" fill="#0A0B09"/>
                    <path d="M136.925611,22.8713839 C135.387792,22.8713839 134.491677,23.445335 134.236579,24.5887825 C134.221431,24.754286 134.211103,24.9173909 134.211103,25.0657615 C134.211103,25.9090413 134.871398,26.3329084 136.189923,26.3329084 C137.239579,26.3329084 137.95048,26.2465587 138.321595,26.0766007 C138.945398,25.8086427 139.35507,25.2364049 139.539251,24.3592021 C139.557841,24.2598315 139.566103,24.1330483 139.566103,23.9819364 C139.566103,23.4614399 139.224595,23.1232371 138.54812,22.9731531 C138.261005,22.9046217 137.720513,22.8713839 136.925611,22.8713839 L136.925611,22.8713839 Z M138.422464,29.5600552 L139.133021,27.1645378 L138.929218,27.1645378 C138.252398,28.8805657 136.512152,29.739265 133.704349,29.739265 C132.165152,29.739265 131.032874,29.569307 130.305448,29.2352161 C129.239611,28.7280832 128.707726,27.8039364 128.707726,26.4545517 C128.707726,25.8829993 128.767628,25.3128175 128.886398,24.7374958 C129.289185,22.8539084 130.074792,21.5182301 131.241152,20.7256636 C132.304234,20.0029993 133.833448,19.6394399 135.825693,19.6394399 C137.023726,19.6394399 137.868202,19.7137965 138.357743,19.8666217 C139.288284,20.1338944 139.791251,20.6663839 139.876628,21.4565517 L140.131726,21.4538105 L140.706989,18.9085517 C140.807857,18.4367126 140.856398,18.0409434 140.856398,17.7195308 C140.856398,16.876251 140.1813,16.4585517 138.827661,16.4585517 C137.374185,16.4585517 136.512152,17.0390133 136.241907,18.1999364 L130.9413,18.1999364 C131.429464,15.9784888 132.520087,14.5235657 134.211103,13.8331112 C135.227021,13.4277476 136.985513,13.2269503 139.487956,13.2269503 C141.9243,13.2269503 143.606366,13.4356287 144.536218,13.8570972 C145.651972,14.3796497 146.211398,15.3993979 146.211398,16.9122301 C146.211398,17.6533979 146.108464,18.5066147 145.907415,19.4639993 L143.72548,29.5600552 L138.422464,29.5600552 Z" id="Fill-63" fill="#0A0B09"/>
                    <path d="M163.323541,17.9975287 L158.302131,17.9975287 C158.352738,17.3906825 158.15823,16.9866895 157.718607,16.7879483 C157.497934,16.6841231 157.06623,16.6334098 156.425557,16.6334098 C155.121836,16.6334098 154.293885,16.7255846 153.939639,16.9123329 C153.667328,17.0644727 153.473164,17.4016476 153.355426,17.9228294 C153.320311,18.106151 153.303098,18.2774797 153.303098,18.4289343 C153.303098,19.001172 154.157557,19.3023678 155.865443,19.3366336 C158.487689,19.4044797 160.247213,19.5949972 161.143672,19.9146965 C162.343082,20.3550112 162.943131,21.2376965 162.943131,22.5709762 C162.943131,23.0400741 162.867049,23.6208783 162.714197,24.3099622 C162.259082,26.4659622 161.159164,27.9616615 159.416164,28.8049413 C158.081459,29.426179 156.153934,29.7386825 153.633934,29.7386825 C151.165574,29.7386825 149.52482,29.6040182 148.713393,29.3343469 C147.292623,28.8799832 146.583098,27.8431021 146.583098,26.2288434 C146.583098,25.7230811 146.661246,25.1508434 146.812377,24.5121301 L152.112984,24.5121301 C152.078557,24.7153259 152.062377,24.907214 152.062377,25.0919063 C152.062377,25.6473538 152.299918,26.0115986 152.771213,26.1795007 C153.059705,26.2798993 153.583328,26.3326685 154.344492,26.3326685 C155.392082,26.3326685 156.044115,26.2966895 156.296459,26.2288434 C156.922328,26.0623119 157.303082,25.6240531 157.43941,24.917151 C157.472459,24.6985357 157.490705,24.504249 157.490705,24.3360042 C157.490705,23.864165 157.279328,23.5598853 156.855197,23.4265916 C156.584262,23.3601161 155.967689,23.3265357 155.004787,23.3265357 C152.941967,23.3265357 151.460607,23.2083189 150.563803,22.9732559 C148.771574,22.518207 147.876148,21.5683608 147.876148,20.1185776 C147.876148,19.6323469 147.943279,19.0926615 148.079951,18.5056895 C148.570525,16.1793888 149.660115,14.6597035 151.35182,13.9329273 C152.43418,13.4631441 154.36859,13.2267105 157.159869,13.2267105 C159.088082,13.2267105 160.498869,13.3582909 161.394295,13.6300182 C162.867049,14.0665636 163.602738,14.9413678 163.602738,16.2561441 C163.602738,16.490179 163.560738,16.8122769 163.475361,17.2162699 L163.323541,17.9975287 Z" id="Fill-65" fill="#0A0B09"/>
                    <path d="M175.827939,19.4491622 C178.062202,19.3648685 178.430218,19.1106168 179.024415,16.3792951 C179.47712,14.2113021 179.27848,13.5345538 177.073136,13.5345538 L173.19571,13.5345538 L171.950857,19.4491622 L175.827939,19.4491622 Z M164.086874,29.7552671 L168.584316,8.63558182 L179.250939,8.63558182 C184.513333,8.63558182 186.039448,10.8584 184.852087,16.3792951 C183.579349,22.3216587 181.825677,24.3484769 175.911939,24.3484769 L170.904644,24.3484769 L169.743448,29.7552671 L164.086874,29.7552671 Z" id="Fill-67" fill="#195394"/>
                    <path d="M196.453416,19.2510378 C198.886662,19.2510378 199.000269,18.3501916 199.509433,15.9567301 C199.905334,14.0707441 199.537662,13.5338 197.669007,13.5338 L193.284482,13.5338 L192.068203,19.2510378 L196.453416,19.2510378 Z M188.6724,8.63585594 L199.593433,8.63585594 C204.489187,8.71946434 206.667679,9.76217063 205.534711,15.0271007 C204.8004,18.5472196 204.346662,20.6011077 200.132203,21.5324503 L200.075056,21.7575762 C202.394695,21.8422126 203.610974,23.1097021 203.10181,25.502821 L202.197089,29.7551986 L196.538105,29.7551986 L197.160187,26.7984084 C197.557466,25.221842 197.104416,24.1510378 195.406515,24.1510378 L191.021302,24.1510378 L189.833252,29.7551986 L184.174269,29.7551986 L188.6724,8.63585594 Z" id="Fill-69" fill="#195394"/>
                    <path d="M220.050187,21.5599657 L221.069548,16.8025112 C221.719859,13.6764483 220.758334,13.366686 217.815236,13.366686 C214.872826,13.366686 213.826613,13.6764483 213.090925,16.8025112 L212.072941,21.5599657 C211.478056,24.7148119 212.383121,25.0249168 215.325875,25.0249168 C218.268285,25.0249168 219.371646,24.7148119 220.050187,21.5599657 M206.101367,22.1808608 L207.375826,16.2103993 C208.761482,9.70436434 213.119154,8.46634336 218.862138,8.46634336 C224.605466,8.46634336 228.39717,9.70436434 227.011515,16.2103993 L225.737744,22.1808608 C224.3514,28.6851825 220.022646,29.9238888 214.278285,29.9238888 C208.536334,29.9238888 204.715711,28.6851825 206.101367,22.1808608" id="Fill-71" fill="#195394"/>
                    <path d="M5.1877918,4.87786434 C0.627693443,9.41533287 0.629414754,16.7697874 5.1877918,21.3058853 C9.74789016,25.8436965 17.1361033,25.8436965 21.6955131,21.3058853 C26.2538902,16.7697874 26.2538902,9.41533287 21.6955131,4.87786434 C17.1361033,0.33971049 9.74582459,0.33971049 5.1877918,4.87786434" id="Fill-73" fill="#195394"/>
                </g>
            </g>
        </g>
    </g>
</svg>