<svg version="1.1" id="Layer_1" xmlns="http://www.w3.org/2000/svg" xmlns:xlink="http://www.w3.org/1999/xlink" x="0px" y="0px" width="32px" height="29px" viewBox="0 0 32 29" enable-background="new 0 0 32 29" xml:space="preserve">
<g id="Mobile-Icon">
	<path id="Combined-Shape" fill="#3498DB" d="M20.154,8.88l0.779,0.001c3.387,0.183,6.746,3.124,10.196,8.714l0.423,0.697v3.71   c0,1.171-0.924,2.13-2.1,2.224l-0.188,0.008h-0.688c-0.431,1.488-1.834,2.579-3.497,2.579c-1.653,0-3.048-1.076-3.488-2.548h-7.086   c-0.441,1.472-1.836,2.548-3.488,2.548c-1.664,0-3.067-1.091-3.498-2.579H6.319c-1.2,0-2.185-0.901-2.28-2.048l-0.008-0.184v-1.991   h2.96v1.991c0,0.15,0.108,0.277,0.252,0.31l0.075,0.009l1.197-0.001c0.426-1.496,1.832-2.594,3.501-2.594   c1.681,0,3.095,1.113,3.51,2.625h7.042c0.415-1.512,1.828-2.625,3.511-2.625c1.668,0,3.075,1.098,3.501,2.594l0.684,0.001   c0.155,0,0.284-0.104,0.318-0.245l0.009-0.073l-0.001-3.188l-0.142-0.235c-0.178-0.287-0.354-0.565-0.529-0.837h-5.191   c-1.911,0-3.475-1.455-3.587-3.292l-0.008-0.214v-4.4l0.021-0.001V8.88z M11.018,21.639c-0.924,0-1.672,0.73-1.672,1.63   c0,0.901,0.749,1.633,1.672,1.633s1.673-0.731,1.673-1.633C12.69,22.369,11.941,21.639,11.018,21.639z M25.08,21.639   c-0.924,0-1.674,0.73-1.674,1.63c0,0.901,0.75,1.633,1.674,1.633c0.923,0,1.672-0.731,1.672-1.633   C26.752,22.369,26.003,21.639,25.08,21.639z M0.458,16.544l6.235,0.032l-0.011,1.913l-6.234-0.033L0.458,16.544z M12.842,14.26   c0.383,0,0.688,0.104,0.917,0.314c0.229,0.211,0.344,0.519,0.344,0.926c0,0.526-0.168,0.957-0.502,1.29   c-0.335,0.332-0.763,0.499-1.282,0.499c-0.451,0-0.781-0.113-0.99-0.344c-0.208-0.23-0.312-0.519-0.312-0.866   c0-0.553,0.161-0.994,0.481-1.324C11.819,14.424,12.268,14.26,12.842,14.26z M22.096,11.037v3.199c0,0.825,0.643,1.504,1.466,1.585   l0.167,0.009l3.864-0.001C25.636,13.204,23.788,11.617,22.096,11.037z M8.412,12.72l0.01,1.912L1.71,14.664L1.7,12.752L8.412,12.72   z M15.468,2.188c1.169,0,2.089,0.285,2.759,0.855c0.669,0.57,1.006,1.379,1.006,2.426c0,0.8-0.218,1.525-0.653,2.175   c-0.433,0.65-1.225,1.372-2.373,2.166c-0.711,0.493-1.224,0.937-1.539,1.331c-0.315,0.393-0.523,0.873-0.625,1.44l0,0h-2.021   l0.06-0.371c0.135-0.723,0.359-1.334,0.673-1.834c0.366-0.583,0.969-1.175,1.81-1.776c0.732-0.513,1.232-0.903,1.503-1.169   c0.27-0.267,0.468-0.536,0.595-0.806c0.126-0.27,0.19-0.565,0.19-0.885c0-0.466-0.147-0.847-0.437-1.14   c-0.291-0.294-0.713-0.44-1.267-0.44c-0.526,0-1.039,0.091-1.539,0.274c-0.499,0.184-1.015,0.399-1.548,0.645l0,0l-0.8-1.76   l0.385-0.196C12.933,2.499,14.206,2.188,15.468,2.188z M9.899,8.88v1.912h2.706V8.88H9.899z"/>
</g>
</svg>